<svg width="25" height="25" viewBox="0 0 25 25" fill="none" xmlns="http://www.w3.org/2000/svg">
<path d="M12.4999 5.35718C11.617 5.35718 10.7539 5.619 10.0197 6.10955C9.28556 6.60009 8.71336 7.29731 8.37547 8.11306C8.03758 8.9288 7.94917 9.82641 8.12143 10.6924C8.29368 11.5584 8.71886 12.3538 9.34321 12.9782C9.96755 13.6025 10.763 14.0277 11.629 14.2C12.495 14.3722 13.3926 14.2838 14.2083 13.9459C15.0241 13.608 15.7213 13.0358 16.2119 12.3017C16.7024 11.5675 16.9642 10.7044 16.9642 9.82146C16.9642 8.63746 16.4939 7.50195 15.6567 6.66474C14.8194 5.82752 13.6839 5.35718 12.4999 5.35718ZM12.4999 12.5C11.9702 12.5 11.4523 12.3429 11.0118 12.0486C10.5713 11.7543 10.228 11.336 10.0253 10.8465C9.82252 10.3571 9.76948 9.81849 9.87283 9.2989C9.97618 8.77931 10.2313 8.30203 10.6059 7.92743C10.9805 7.55282 11.4578 7.29771 11.9774 7.19436C12.497 7.09101 13.0355 7.14405 13.525 7.34679C14.0144 7.54952 14.4328 7.89284 14.7271 8.33333C15.0214 8.77382 15.1785 9.29169 15.1785 9.82146C15.1778 10.5316 14.8954 11.2125 14.3932 11.7147C13.891 12.2169 13.2101 12.4993 12.4999 12.5Z" fill="#010400"/>
<path d="M12.5 0C10.0277 0 7.61099 0.733112 5.55538 2.10663C3.49976 3.48015 1.89761 5.43238 0.951511 7.71646C0.00541604 10.0005 -0.242126 12.5139 0.24019 14.9386C0.722505 17.3634 1.91301 19.5907 3.66117 21.3388C5.40933 23.087 7.63661 24.2775 10.0614 24.7598C12.4861 25.2421 14.9995 24.9946 17.2835 24.0485C19.5676 23.1024 21.5199 21.5002 22.8934 19.4446C24.2669 17.389 25 14.9723 25 12.5C24.9962 9.18595 23.678 6.00873 21.3347 3.66534C18.9913 1.32196 15.814 0.003781 12.5 0V0ZM7.14286 21.7652V20.5357C7.14357 19.8255 7.426 19.1446 7.92818 18.6425C8.43036 18.1403 9.11125 17.8578 9.82143 17.8571H15.1786C15.8888 17.8578 16.5697 18.1403 17.0718 18.6425C17.574 19.1446 17.8564 19.8255 17.8571 20.5357V21.7652C16.2314 22.7145 14.3826 23.2147 12.5 23.2147C10.6174 23.2147 8.7686 22.7145 7.14286 21.7652V21.7652ZM19.6357 20.4696C19.6179 19.2985 19.1408 18.1812 18.3071 17.3586C17.4734 16.5359 16.3498 16.0736 15.1786 16.0714H9.82143C8.65017 16.0736 7.52664 16.5359 6.69294 17.3586C5.85924 18.1812 5.38208 19.2985 5.36429 20.4696C3.74515 19.0239 2.60334 17.1204 2.09004 15.0113C1.57674 12.9022 1.71617 10.6869 2.48986 8.6588C3.26356 6.63069 4.63502 4.88542 6.42266 3.65408C8.21029 2.42274 10.3298 1.76342 12.5004 1.76342C14.6711 1.76342 16.7906 2.42274 18.5782 3.65408C20.3659 4.88542 21.7373 6.63069 22.511 8.6588C23.2847 10.6869 23.4242 12.9022 22.9109 15.0113C22.3976 17.1204 21.2557 19.0239 19.6366 20.4696H19.6357Z" fill="#010400"/>
</svg>
