<svg width="31" height="30" viewBox="0 0 31 30" fill="none" xmlns="http://www.w3.org/2000/svg">
    <path d="M29.8122 10.7585L20.6381 9.42523L16.537 1.11107C16.425 0.883436 16.2407 0.699159 16.0131 0.587147C15.4422 0.305311 14.7485 0.540174 14.463 1.11107L10.3619 9.42523L1.18781 10.7585C0.934878 10.7947 0.703628 10.9139 0.526577 11.0946C0.312532 11.3146 0.194584 11.6105 0.198649 11.9175C0.202714 12.2244 0.32846 12.5171 0.548256 12.7314L7.18585 19.2028L5.61769 28.3408C5.58092 28.5533 5.60444 28.772 5.68559 28.9718C5.76674 29.1717 5.90228 29.3449 6.07682 29.4716C6.25137 29.5984 6.45795 29.6737 6.67313 29.6891C6.88831 29.7044 7.10348 29.6592 7.29425 29.5584L15.5 25.2442L23.7058 29.5584C23.9298 29.6777 24.19 29.7174 24.4393 29.6741C25.068 29.5657 25.4907 28.9695 25.3823 28.3408L23.8142 19.2028L30.4518 12.7314C30.6324 12.5543 30.7517 12.3231 30.7878 12.0702C30.8854 11.4378 30.4445 10.8525 29.8122 10.7585Z" fill="#19647E"/>
</svg>
