<svg width="48" height="48" viewBox="0 0 48 48" fill="none" xmlns="http://www.w3.org/2000/svg">
<path d="M13.5 21.5C17.9183 21.5 21.5 17.9183 21.5 13.5C21.5 9.08172 17.9183 5.5 13.5 5.5C9.08172 5.5 5.5 9.08172 5.5 13.5C5.5 17.9183 9.08172 21.5 13.5 21.5Z" fill="#357266" stroke="#357266" stroke-linecap="round" stroke-linejoin="round"/>
<path d="M34.5 42.5C38.9183 42.5 42.5 38.9183 42.5 34.5C42.5 30.0817 38.9183 26.5 34.5 26.5C30.0817 26.5 26.5 30.0817 26.5 34.5C26.5 38.9183 30.0817 42.5 34.5 42.5Z" fill="#357266" stroke="#357266" stroke-linecap="round" stroke-linejoin="round"/>
<path d="M34.5 21.5C38.9183 21.5 42.5 17.9183 42.5 13.5C42.5 9.08172 38.9183 5.5 34.5 5.5C30.0817 5.5 26.5 9.08172 26.5 13.5C26.5 17.9183 30.0817 21.5 34.5 21.5Z" fill="#357266" stroke="#357266" stroke-linecap="round" stroke-linejoin="round"/>
<path d="M13.5 42.5C17.9183 42.5 21.5 38.9183 21.5 34.5C21.5 30.0817 17.9183 26.5 13.5 26.5C9.08172 26.5 5.5 30.0817 5.5 34.5C5.5 38.9183 9.08172 42.5 13.5 42.5Z" fill="#357266" stroke="#357266" stroke-linecap="round" stroke-linejoin="round"/>
</svg>
